<svg xmlns="http://www.w3.org/2000/svg" viewBox="0 0 400 600" width="400" height="600">
  <defs>
    <linearGradient id="vietnamGradient" x1="0%" y1="0%" x2="100%" y2="100%">
      <stop offset="0%" style="stop-color:#3b82f6;stop-opacity:0.9" />
      <stop offset="30%" style="stop-color:#10b981;stop-opacity:0.8" />
      <stop offset="70%" style="stop-color:#f59e0b;stop-opacity:0.8" />
      <stop offset="100%" style="stop-color:#ef4444;stop-opacity:0.9" />
    </linearGradient>
    
    <filter id="mapGlow" x="-50%" y="-50%" width="200%" height="200%">
      <feGaussianBlur stdDeviation="4" result="coloredBlur"/>
      <feMerge> 
        <feMergeNode in="coloredBlur"/>
        <feMergeNode in="SourceGraphic"/>
      </feMerge>
    </filter>
  </defs>
  
  <!-- Vietnam mainland - accurate detailed outline -->
  <path id="vietnam-mainland" 
    d="M200 40 L210 42 L225 48 L240 58 L250 70 L258 85 L265 100 L270 118 L275 135 L280 152 L285 170 L290 188 L295 205 L300 222 L305 240 L310 258 L315 275 L320 292 L325 310 L330 328 L335 345 L340 362 L345 380 L350 398 L355 415 L360 432 L365 450 L370 467 L375 485 L380 502 L375 520 L370 537 L365 555 L360 572 L350 585 L335 595 L320 600 L300 598 L280 595 L260 590 L240 583 L220 575 L200 565 L180 553 L160 540 L145 525 L130 508 L118 490 L108 470 L100 450 L95 428 L92 405 L90 382 L88 358 L87 335 L86 312 L85 288 L84 265 L83 242 L82 218 L81 195 L80 172 L79 148 L78 125 L77 102 L76 78 L75 55 L80 45 L90 38 L105 35 L125 36 L145 38 L165 40 L185 41 Z"
    fill="url(#vietnamGradient)"
    stroke="#1e40af"
    stroke-width="2"
    filter="url(#mapGlow)"
  />
  
  <!-- Phu Quoc Island -->
  <path id="phu-quoc" 
    d="M45 520 L55 518 L65 520 L70 525 L72 532 L70 540 L65 545 L55 547 L45 545 L40 540 L38 532 L40 525 Z"
    fill="url(#vietnamGradient)"
    stroke="#1e40af"
    stroke-width="1.5"
    filter="url(#mapGlow)"
  />
</svg>